<?xml version="1.0" encoding="utf-8"?>
<!-- Generator: Adobe Illustrator 19.1.0, SVG Export Plug-In . SVG Version: 6.00 Build 0)  -->
<svg version="1.1" id="Capa_1" xmlns="http://www.w3.org/2000/svg" xmlns:xlink="http://www.w3.org/1999/xlink" x="0px" y="0px"
	 viewBox="-41 164.9 512 512" style="enable-background:new -41 164.9 512 512;" xml:space="preserve">
<style type="text/css">
	.st0{fill:#262626;}
</style>
<g>
	<g>
		<path class="st0" d="M148.7,478.9c-23.6,0-42.7,19.2-42.7,42.8c0,23.6,19.1,42.7,42.7,42.7s42.7-19.2,42.7-42.7
			C191.4,498.1,172.3,478.9,148.7,478.9z M148.7,543.1c-11.8,0-21.4-9.6-21.4-21.4c0-11.8,9.5-21.4,21.4-21.4
			c11.8,0,21.4,9.6,21.4,21.4C170.1,533.5,160.5,543.1,148.7,543.1z M471,447.3v45.6c0,11.4-9.2,20.6-20.6,20.6h-22.1
			c-4-27.3-27.5-48.4-56-48.4c-28.4,0-51.9,21-55.9,48.4H204.6c-4-27.3-27.5-48.4-55.9-48.4s-51.9,21-55.9,48.4H65.2
			c-11.4,0-20.6-9.2-20.6-20.6v-45.6L471,447.3L471,447.3z M372.4,478.9c-23.6,0-42.8,19.2-42.8,42.8c0,23.6,19.2,42.7,42.8,42.7
			c23.6,0,42.7-19.2,42.7-42.7C415.1,498.1,396,478.9,372.4,478.9z M372.4,543.1c-11.8,0-21.4-9.6-21.4-21.4
			c0-11.8,9.5-21.4,21.4-21.4c11.7,0,21.4,9.6,21.4,21.4C393.8,533.5,384.1,543.1,372.4,543.1z M462.9,401.3l-81-80.1
			c-5.2-5.1-12.1-8-19.3-8h-40.9v-15.3c0-11.4-9.2-20.6-20.6-20.6H65.2c-11.3,0-20.6,9.2-20.6,20.6v3.2l-83.6,9.6l148.2,19.3
			L-41,345l149.6,21.3l-149.6,13l85.6,16.1l0,40.5H471v-15C471,413.5,468,406.5,462.9,401.3z M427.6,404h-78.4
			c-1.8,0-3.2-1.4-3.2-3.2v-60.5c0-1.8,1.4-3.2,3.2-3.2h14.9c0.8,0,1.6,0.3,2.3,0.9l63.4,60.5C431.9,400.5,430.5,404,427.6,404z"/>
	</g>
</g>
</svg>
